HIERARCHY
ROOT Hips
{
	OFFSET 0.000000 0.000000 0.000000
	CHANNELS 6 Xposition Yposition Zposition Zrotation Yrotation Xrotation 
	JOINT LowerBack
	{
		OFFSET 0.000000 0.000000 0.000000
		CHANNELS 3 Zrotation Yrotation Xrotation
		JOINT Spine
		{
			OFFSET 0.028270 2.035590 -0.193380
			CHANNELS 3 Zrotation Yrotation Xrotation
			JOINT Spine1
			{
				OFFSET 0.056720 2.048850 -0.042750
				CHANNELS 3 Zrotation Yrotation Xrotation
				JOINT Neck
				{
					OFFSET 0.000000 0.000000 0.000000
					CHANNELS 3 Zrotation Yrotation Xrotation
					JOINT Neck1
					{
						OFFSET -0.054170 1.746240 0.172020
						CHANNELS 3 Zrotation Yrotation Xrotation
						JOINT Head
						{
							OFFSET 0.104070 1.761360 -0.123970
							CHANNELS 3 Zrotation Yrotation Xrotation
							End Site
							{
								OFFSET 0.000000 0.000000 0.000000
							}
						}
					}
				}
				JOINT LeftShoulder
				{
					OFFSET 0.000000 0.000000 0.000000
					CHANNELS 3 Zrotation Yrotation Xrotation
					JOINT LeftArm
					{
						OFFSET 3.362410 1.200890 -0.311210
						CHANNELS 3 Zrotation Yrotation Xrotation
						JOINT LeftForeArm
						{
							OFFSET 4.983000 -0.000000 -0.000000
							CHANNELS 3 Zrotation Yrotation Xrotation
							JOINT LeftHand
							{
								OFFSET 3.483560 -0.000000 -0.000000
								CHANNELS 3 Zrotation Yrotation Xrotation
								JOINT LeftFingerBase
								{
									OFFSET 0.000000 0.000000 0.000000
									CHANNELS 3 Zrotation Yrotation Xrotation
									JOINT LeftHandIndex1
									{
										OFFSET 0.715260 -0.000000 -0.000000
										CHANNELS 3 Zrotation Yrotation Xrotation
										End Site
										{
											OFFSET 0.000000 0.000000 0.000000
										}
									}
								}
								JOINT LThumb
								{
									OFFSET 0.000000 0.000000 0.000000
									CHANNELS 3 Zrotation Yrotation Xrotation
									End Site
									{
										OFFSET 0.000000 0.000000 0.000000
									}
								}
							}
						}
					}
				}
				JOINT RightShoulder
				{
					OFFSET 0.000000 0.000000 0.000000
					CHANNELS 3 Zrotation Yrotation Xrotation
					JOINT RightArm
					{
						OFFSET -3.136600 1.374050 -0.404650
						CHANNELS 3 Zrotation Yrotation Xrotation
						JOINT RightForeArm
						{
							OFFSET -5.241900 -0.000000 -0.000000
							CHANNELS 3 Zrotation Yrotation Xrotation
							JOINT RightHand
							{
								OFFSET -3.444170 -0.000000 -0.000000
								CHANNELS 3 Zrotation Yrotation Xrotation
								JOINT RightFingerBase
								{
									OFFSET 0.000000 0.000000 0.000000
									CHANNELS 3 Zrotation Yrotation Xrotation
									JOINT RightHandIndex1
									{
										OFFSET -0.622530 -0.000000 -0.000000
										CHANNELS 3 Zrotation Yrotation Xrotation
										End Site
										{
											OFFSET 0.000000 0.000000 0.000000
										}
									}
								}
								JOINT RThumb
								{
									OFFSET 0.000000 0.000000 0.000000
									CHANNELS 3 Zrotation Yrotation Xrotation
									End Site
									{
										OFFSET 0.000000 0.000000 0.000000
									}
								}
							}
						}
					}
				}
			}
		}
	}
}
}
MOTION
Frames: 11
Frame Time: 0.008333
8.054841 15.797956 0.902614 -17.828338 82.463462 13.246570 4.347219 0.102603 8.240991 0.315509 0.196496 -1.276217 -4.676241 0.178881 -0.230937 8.346151 -6.994633 -6.558319 -2.052763 -0.141776 -0.115667 0.000000 0.000000 0.000000 2.391466 9.958091 2.820767 -73.812225 14.632059 14.962968 -0.842153 -69.798217 0.004731 -1.988737 6.452955 -0.110298 0.004932 0.097947 0.000000 0.000000 0.000000 0.000000 0.000000 0.000000 0.000000 6.890956 -1.294711 0.210239 62.283099 24.147380 11.996843 0.177035 84.661811 -0.012636 -2.835514 6.073630 -0.165593 0.078571 -0.454700 -0.000000 0.000000 0.000000 0.000000 0.000000 0.000000 0.000000 
8.191488 15.824632 0.907712 -17.946659 82.494221 13.171712 4.096521 0.183983 8.233319 0.273949 0.287316 -1.267567 -4.617626 0.269793 -0.177621 8.235069 -6.971486 -6.543432 -2.013846 -0.139299 -0.111283 0.000000 0.000000 0.000000 2.257043 10.280836 2.828452 -73.745811 15.375145 14.938029 -0.844122 -69.862767 0.005118 -2.175804 6.444343 -0.120720 0.007485 0.093328 0.000000 0.000000 0.000000 0.000000 0.000000 0.000000 0.000000 6.650546 -1.226218 0.179012 61.685055 24.890340 12.127232 0.145406 85.351220 -0.012369 -2.761107 6.007025 -0.159704 0.078098 -0.457896 0.000000 0.000000 0.000000 0.000000 0.000000 0.000000 0.000000 
8.330070 15.849869 0.911948 -18.232924 82.551538 12.925935 3.867814 0.258574 8.215631 0.236413 0.371023 -1.261631 -4.564069 0.353587 -0.126177 8.133311 -6.951330 -6.536214 -1.977596 -0.136927 -0.108791 0.000000 0.000000 0.000000 2.137354 10.594821 2.836015 -73.684956 16.097673 14.892852 -0.845719 -69.930020 0.005429 -2.350288 6.463813 -0.131041 0.009818 0.088591 0.000000 0.000000 0.000000 0.000000 0.000000 0.000000 0.000000 6.428375 -1.163418 0.151935 61.075552 25.573409 12.204151 0.113075 86.040980 -0.011989 -2.667495 5.932974 -0.152718 0.077138 -0.460834 -0.000000 0.000000 0.000000 0.000000 0.000000 0.000000 0.000000 
8.470750 15.873591 0.915259 -18.702680 82.632289 12.494549 3.662689 0.326697 8.188005 0.203159 0.447937 -1.258750 -4.515763 0.430580 -0.078022 8.040257 -6.933092 -6.536904 -1.943496 -0.134617 -0.108267 0.000000 0.000000 0.000000 2.029375 10.898779 2.843948 -73.627657 16.800585 14.831967 -0.846812 -70.000602 0.005652 -2.504778 6.508910 -0.140962 0.011842 0.083782 0.000000 0.000000 0.000000 0.000000 0.000000 0.000000 0.000000 6.220067 -1.104250 0.128479 60.465779 26.191187 12.228970 0.080159 86.728677 -0.011491 -2.553633 5.851850 -0.144429 0.075635 -0.463543 -0.000000 0.000000 0.000000 0.000000 0.000000 0.000000 0.000000 
8.613566 15.895645 0.917755 -19.340388 82.732044 11.892263 3.477171 0.388651 8.152740 0.173392 0.518479 -1.258722 -4.472278 0.501211 -0.034396 7.955248 -6.915064 -6.546144 -1.910525 -0.132275 -0.109971 0.000000 0.000000 0.000000 1.932662 11.195305 2.853296 -73.571445 17.479981 14.761886 -0.847460 -70.074991 0.005789 -2.638015 6.578963 -0.150282 0.013516 0.078928 0.000000 0.000000 0.000000 0.000000 0.000000 0.000000 0.000000 6.018836 -1.045590 0.107301 59.870295 26.736224 12.204674 0.046868 87.411465 -0.010907 -2.424884 5.769515 -0.135445 0.073625 -0.466162 -0.000000 0.000000 0.000000 0.000000 0.000000 0.000000 0.000000 
8.758597 15.916005 0.919397 -20.159659 82.846486 11.105055 3.311270 0.444894 8.111157 0.147022 0.583160 -1.261637 -4.433878 0.566000 0.003338 7.878242 -6.896326 -6.563997 -1.878299 -0.129869 -0.113952 0.000000 0.000000 0.000000 1.844521 11.483996 2.864594 -73.514093 18.136292 14.686049 -0.847639 -70.155221 0.005850 -2.749992 6.667649 -0.159000 0.014846 0.074109 0.000000 0.000000 0.000000 0.000000 0.000000 0.000000 0.000000 5.821433 -0.985411 0.087545 59.300687 27.203858 12.134849 0.013372 88.088175 -0.010267 -2.286074 5.686814 -0.126158 0.071177 -0.468745 -0.000000 0.000000 0.000000 0.000000 0.000000 0.000000 0.000000 
8.906027 15.934546 0.920183 -21.182474 82.972643 10.112055 3.165865 0.495786 8.062829 0.124083 0.642313 -1.267802 -4.401083 0.625289 0.034564 7.810359 -6.878985 -6.590889 -1.846796 -0.127390 -0.120312 0.000000 0.000000 0.000000 1.762143 11.763239 2.877743 -73.453918 18.771287 14.606969 -0.847342 -70.243431 0.005846 -2.842169 6.763990 -0.166917 0.015873 0.069444 0.000000 0.000000 0.000000 0.000000 0.000000 0.000000 0.000000 5.628414 -0.925287 0.069102 58.763852 27.593322 12.025706 -0.020146 88.757882 -0.009601 -2.142767 5.602252 -0.116674 0.068427 -0.471289 -0.000000 0.000000 0.000000 0.000000 0.000000 0.000000 0.000000 
9.055903 15.951172 0.920169 -22.401673 83.107017 8.919888 3.037706 0.541486 8.008691 0.103773 0.696125 -1.277034 -4.374193 0.679296 0.059394 7.753343 -6.864399 -6.627495 -1.816107 -0.124830 -0.129277 0.000000 0.000000 0.000000 1.686004 12.034971 2.892970 -73.390036 19.381938 14.528491 -0.846779 -70.338938 0.005806 -2.919190 6.859176 -0.174033 0.016653 0.065026 0.000000 0.000000 0.000000 0.000000 0.000000 0.000000 0.000000 5.441859 -0.866103 0.051486 58.266308 27.905594 11.884189 -0.053445 89.419055 -0.008960 -2.003675 5.516498 -0.107688 0.065560 -0.473828 -0.000000 0.000000 0.000000 0.000000 0.000000 0.000000 0.000000 
9.208233 15.965832 0.919497 -23.815960 83.246944 7.528649 2.923130 0.582169 7.950720 0.085253 0.744848 -1.289072 -4.353348 0.728295 0.077341 7.707790 -6.851664 -6.673651 -1.786065 -0.122174 -0.140855 0.000000 0.000000 0.000000 1.616026 12.300211 2.910856 -73.322346 19.964922 14.451593 -0.846133 -70.442244 0.005744 -2.989655 6.949743 -0.180748 0.017288 0.060889 0.000000 0.000000 0.000000 0.000000 0.000000 0.000000 0.000000 5.260696 -0.806219 0.033816 57.816910 28.137532 11.715210 179.913690 89.929102 179.991615 -1.875562 5.433752 -0.099501 0.062708 -0.476459 -0.000000 0.000000 0.000000 0.000000 0.000000 0.000000 0.000000 
9.363111 15.978471 0.918237 -25.423595 83.391459 5.940469 2.819460 0.617623 7.888270 0.067756 0.788201 -1.303917 -4.339263 0.772031 0.089225 7.676343 -6.842895 -6.729473 -1.757400 -0.119470 -0.155072 0.000000 0.000000 0.000000 1.552928 12.558738 2.931144 -73.251028 20.518263 14.376880 -0.845627 -70.551471 0.005682 -3.058595 7.027267 -0.187161 0.017846 0.057109 0.000000 0.000000 0.000000 0.000000 0.000000 0.000000 0.000000 5.091545 -0.748115 0.016365 57.416892 28.294325 11.526373 179.881442 89.287828 179.992098 -1.763078 5.352156 -0.092313 0.060023 -0.479143 -0.000000 0.000000 0.000000 0.000000 0.000000 0.000000 0.000000 
9.520530 15.989070 0.916537 -27.225021 83.540675 4.154473 2.723774 0.647453 7.821830 0.050515 0.825759 -1.321471 -4.332512 0.810089 0.095211 7.660553 -6.837956 -6.794296 -1.730681 -0.116770 -0.171759 0.000000 0.000000 0.000000 1.496578 12.808971 2.953845 -73.176147 21.040796 14.302522 -0.845377 -70.666715 0.005634 -3.132232 7.089854 -0.193472 0.018411 0.053693 0.000000 0.000000 0.000000 0.000000 0.000000 0.000000 0.000000 4.938593 -0.691915 -0.000758 57.068681 28.377347 11.323096 179.849963 88.658445 179.992475 -1.668827 5.273393 -0.086223 0.057597 -0.481896 -0.000000 0.000000 0.000000 0.000000 0.000000 0.000000 0.000000 
